<?xml version="1.0" encoding="UTF-8"?>
<svg width="17px" height="15px" viewBox="0 0 17 15" version="1.1" xmlns="http://www.w3.org/2000/svg" xmlns:xlink="http://www.w3.org/1999/xlink">
    <title>icon_shaixuan</title>
    <g id="页面-1" stroke="none" stroke-width="1" fill="none" fill-rule="evenodd">
        <g id="02筛选" transform="translate(-340.000000, -50.000000)" fill="#FFFFFF" fill-rule="nonzero">
            <g id="编组" transform="translate(336.000000, 45.000000)">
                <g id="搜索1" transform="translate(4.000000, 5.000000)">
                    <path d="M15.9969793,13.9302603 L12.0192162,10.4947896 C12.0012884,10.47932 11.982621,10.4652296 11.963434,10.4523383 C12.2502796,10.0542283 12.4917359,9.62545896 12.6845851,9.16944814 C13.0286119,8.35591973 13.2030536,7.49198547 13.2030536,6.60168908 C13.2030536,5.71165252 13.0285919,4.84793812 12.6845451,4.03454961 C12.3523304,3.24918209 11.8768527,2.54394023 11.2713233,1.93849074 C10.6657938,1.33304123 9.96045205,0.857603574 9.17494463,0.525428789 C8.36137623,0.181402031 7.49748195,0.0069603125 6.60718557,0.0069603125 C5.71718898,0.0069603125 4.85345459,0.181402031 4.04006607,0.52544877 C3.25469855,0.857643535 2.54949668,1.33306121 1.94402719,1.9385307 C1.3385577,2.54398021 0.86314002,3.24918209 0.530945254,4.03454961 C0.186898516,4.84795812 0.0124567969,5.71167252 0.0124567969,6.60168908 C0.0124567969,7.49196547 0.186898516,8.35587975 0.530925273,9.16944814 C0.863100059,9.95497557 1.33851773,10.6602973 1.94400721,11.2658068 C2.54943672,11.8713562 3.25465859,12.3468139 4.04004609,12.6790686 C4.85343461,13.0230954 5.71714902,13.1975571 6.60716559,13.1975571 C7.49746197,13.1975571 8.36137623,13.0230954 9.17494463,12.6790686 C9.93359027,12.3582262 10.6171468,11.9033546 11.2085259,11.3271652 C11.2239954,11.3441137 11.2405042,11.3604027 11.2582721,11.3757922 L15.2360152,14.811263 C15.3460406,14.9062786 15.4814088,14.952827 15.6162174,14.952827 C15.7794867,14.952827 15.9418766,14.8844933 16.0569786,14.7512237 C16.2671162,14.5079486 16.2402344,14.1403778 15.9969793,13.9302603 Z M6.60718561,12.0334663 C5.1565891,12.0334663 3.79287371,11.4685094 2.7672091,10.4427448 C1.74148455,9.41686037 1.17656756,8.05276523 1.17656756,6.60168906 C1.17656756,5.15113254 1.74146455,3.78739715 2.76716912,2.7616726 C3.79289367,1.73596803 5.15662906,1.17107104 6.60716561,1.17107104 C8.0582218,1.17107104 9.42233691,1.73596803 10.4482014,2.76171258 C11.4739859,3.78735719 12.0389429,5.15109258 12.0389429,6.60168908 C12.0389429,8.05278523 11.4739859,9.41686039 10.4481814,10.4427049 C9.42237689,11.4685293 8.05828176,12.0334663 6.60718561,12.0334663 Z" id="形状"></path>
                </g>
            </g>
        </g>
    </g>
</svg>