<?xml version="1.0" encoding="UTF-8"?>
<svg width="17px" height="19px" viewBox="0 0 17 19" version="1.1" xmlns="http://www.w3.org/2000/svg" xmlns:xlink="http://www.w3.org/1999/xlink">
    <title>icon_shaixuan备份</title>
    <g id="页面-1" stroke="none" stroke-width="1" fill="none" fill-rule="evenodd">
        <g id="02筛选备份" transform="translate(-340.000000, -306.000000)" fill="#E6E6E6" fill-rule="nonzero">
            <g id="编组" transform="translate(336.000000, 303.000000)">
                <g id="日历-1" transform="translate(4.000000, 3.000000)">
                    <path d="M15,18.125 L1.25,18.125 C0.56,18.125 0,17.565 0,16.875 L0,3.125 C0,2.434375 0.56,1.875 1.25,1.875 L2.5,1.875 L2.5,2.5 C2.5,3.535625 3.339375,4.375 4.375,4.375 C5.41,4.375 6.25,3.535625 6.25,2.5 L6.25,1.875 L10,1.875 L10,2.5 C10,3.535625 10.84,4.375 11.875,4.375 C12.91,4.375 13.75,3.535625 13.75,2.5 L13.75,1.875 L15,1.875 C15.69,1.875 16.25,2.434375 16.25,3.125 L16.25,16.875 C16.25,17.565 15.69,18.125 15,18.125 Z M15,6.25 L1.25,6.25 L1.25,16.875 L15,16.875 L15,6.25 Z M4.375,9.375 L2.5,9.375 L2.5,7.5 L4.375,7.5 L4.375,9.375 Z M4.375,12.5 L2.5,12.5 L2.5,10.625 L4.375,10.625 L4.375,12.5 Z M4.375,15.625 L2.5,15.625 L2.5,13.75 L4.375,13.75 L4.375,15.625 Z M7.5,9.375 L5.625,9.375 L5.625,7.5 L7.5,7.5 L7.5,9.375 Z M7.5,12.5 L5.625,12.5 L5.625,10.625 L7.5,10.625 L7.5,12.5 Z M7.5,15.625 L5.625,15.625 L5.625,13.75 L7.5,13.75 L7.5,15.625 Z M10.625,9.375 L8.75,9.375 L8.75,7.5 L10.625,7.5 L10.625,9.375 Z M10.625,12.5 L8.75,12.5 L8.75,10.625 L10.625,10.625 L10.625,12.5 Z M10.625,15.625 L8.75,15.625 L8.75,13.75 L10.625,13.75 L10.625,15.625 Z M13.75,9.375 L11.875,9.375 L11.875,7.5 L13.75,7.5 L13.75,9.375 Z M13.75,12.5 L11.875,12.5 L11.875,10.625 L13.75,10.625 L13.75,12.5 Z M13.75,15.625 L11.875,15.625 L11.875,13.75 L13.75,13.75 L13.75,15.625 Z M11.855625,3.75 C11.175625,3.75 10.625,3.19875 10.625,2.519375 L10.625,1.230625 C10.625,0.550625 11.175625,0 11.855625,0 C12.535625,0 13.08625,0.550625 13.08625,1.230625 L13.08625,2.519375 C13.08625,3.19875 12.535625,3.75 11.855625,3.75 Z M4.355625,3.75 C3.675625,3.75 3.125,3.19875 3.125,2.519375 L3.125,1.230625 C3.125,0.550625 3.675625,0 4.355625,0 C5.035625,0 5.58625,0.550625 5.58625,1.230625 L5.58625,2.519375 C5.58625,3.19875 5.035,3.75 4.355625,3.75 L4.355625,3.75 Z" id="形状"></path>
                </g>
            </g>
        </g>
    </g>
</svg>